<?xml version="1.0" encoding="UTF-8"?>
<svg id="Layer_1" data-name="Layer 1" xmlns="http://www.w3.org/2000/svg" viewBox="0 0 874.11 165.38">
  <defs>
    <style>
      .cls-1 {
        fill: #f2ebee;
      }

      .cls-2 {
        fill: #ed7950;
      }

      .cls-3 {
        fill: #d27554;
      }

      .cls-4 {
        fill: #ad674f;
      }

      .cls-5 {
        stroke: #9e9a9c;
        stroke-miterlimit: 10;
        stroke-width: 3.96px;
      }

      .cls-5, .cls-6 {
        fill: #9e9a9c;
      }

      .cls-7 {
        fill: #c1c1c1;
      }

      .cls-8 {
        fill: #e0dadc;
      }

      .cls-9 {
        fill: #1a1a1a;
      }
    </style>
  </defs>
  <g>
    <path class="cls-9" d="m200.73,120.22c-4.11-4.07-6.16-9.47-6.16-16.21v-17.63c0-7.07,2.05-12.76,6.16-17.07,4.11-4.31,9.49-6.47,16.15-6.47h10.11c6.33,0,11.42,1.77,15.28,5.3,3.86,3.53,5.79,8.18,5.79,13.93h-8.63c0-3.37-1.13-6.1-3.39-8.2-2.26-2.1-5.28-3.14-9.06-3.14h-10.11c-4.03,0-7.27,1.44-9.74,4.31-2.47,2.88-3.7,6.66-3.7,11.34v17.63c0,4.36,1.25,7.85,3.76,10.48,2.51,2.63,5.77,3.94,9.8,3.94h10.11c3.86,0,6.96-1.36,9.31-4.07,2.34-2.71,3.51-6.33,3.51-10.85h8.63c0,6.82-1.97,12.33-5.92,16.52s-9.12,6.29-15.53,6.29h-10.11c-6.74,0-12.16-2.03-16.27-6.1Z"/>
    <path class="cls-9" d="m266.49,121.64c-3.57-3.12-5.36-7.31-5.36-12.57v-3.94c0-5.18,1.85-9.33,5.55-12.45,3.7-3.12,8.59-4.68,14.67-4.68h7.89c2.71,0,5.5.41,8.38,1.23,2.88.82,5.34,1.93,7.4,3.33v-10.23c0-3.45-1.07-6.27-3.2-8.44-2.14-2.18-4.97-3.27-8.51-3.27h-9.86c-3.53,0-6.37.82-8.51,2.47-2.14,1.65-3.2,3.82-3.2,6.53h-8.88c0-5.01,1.89-9.06,5.67-12.14,3.78-3.08,8.75-4.62,14.92-4.62h9.86c6.08,0,10.99,1.79,14.73,5.36,3.74,3.57,5.61,8.28,5.61,14.11v43.02h-8.38v-8.63c-1.89,2.96-4.38,5.3-7.46,7.03-3.08,1.73-6.27,2.59-9.55,2.59h-7.4c-6,0-10.79-1.56-14.36-4.68Zm22-3.08c3.86,0,7.31-1.19,10.35-3.57,3.04-2.38,5.09-5.55,6.16-9.49v-4.56c-1.64-1.56-3.92-2.81-6.84-3.76-2.92-.94-5.9-1.42-8.94-1.42h-7.89c-3.37,0-6.1.86-8.2,2.59-2.1,1.73-3.14,3.99-3.14,6.78v3.94c0,2.88.99,5.18,2.96,6.9,1.97,1.73,4.6,2.59,7.89,2.59h7.64Z"/>
    <path class="cls-9" d="m335.58,121.45c-2.63-2.59-3.94-6.88-3.94-12.88V39.05h8.88v69.52c0,3.12.64,5.38,1.91,6.78,1.27,1.4,3.35,2.1,6.22,2.1h4.19v7.89h-4.19c-6.08,0-10.44-1.29-13.07-3.88Z"/>
    <path class="cls-2" d="m368.49,120.22c-4.19-4.07-6.29-9.47-6.29-16.21v-17.63c0-7.07,2.1-12.76,6.29-17.07,4.19-4.31,9.74-6.47,16.64-6.47h10.11c6.57,0,11.87,2.1,15.9,6.29,4.03,4.19,6.04,9.74,6.04,16.64v10.85h-46.1v7.4c0,4.27,1.29,7.75,3.88,10.42,2.59,2.67,5.98,4.01,10.17,4.01h9.37c4.11,0,7.44-1.13,9.98-3.39,2.55-2.26,3.82-5.28,3.82-9.06h8.63c0,6.08-2.06,10.99-6.16,14.73-4.11,3.74-9.53,5.61-16.27,5.61h-9.37c-6.9,0-12.45-2.03-16.64-6.1Zm39.81-31.25v-3.2c0-4.52-1.19-8.15-3.57-10.91-2.38-2.75-5.55-4.13-9.49-4.13h-10.11c-4.19,0-7.58,1.44-10.17,4.31-2.59,2.88-3.88,6.66-3.88,11.34v2.59h37.23Z"/>
    <path class="cls-9" d="m432.71,63.83h8.63v9.12c1.89-2.96,4.35-5.38,7.4-7.27,3.04-1.89,6.08-2.83,9.12-2.83h8.38c5.67,0,10.25,1.93,13.74,5.79,3.49,3.86,5.24,8.92,5.24,15.16v41.54h-8.88v-41.79c0-3.78-.95-6.86-2.84-9.25-1.89-2.38-4.4-3.57-7.52-3.57h-7.89c-3.86,0-7.38,1.52-10.54,4.56-3.16,3.04-5.16,6.95-5.98,11.71v38.33h-8.88v-61.51Z"/>
    <path class="cls-9" d="m511.11,123.36c-3.29-1.97-5.84-4.72-7.64-8.26-1.81-3.53-2.71-7.64-2.71-12.33v-14.79c0-4.93.94-9.31,2.83-13.13,1.89-3.82,4.56-6.78,8.01-8.88,3.45-2.1,7.4-3.14,11.83-3.14h9.12c2.79,0,5.49.66,8.07,1.97,2.59,1.32,4.66,3.12,6.22,5.42v-31.19h8.88v86.28h-8.63v-9.12c-1.89,3.04-4.36,5.49-7.4,7.33-3.04,1.85-6,2.77-8.88,2.77h-8.5c-4.19,0-7.93-.99-11.22-2.96Zm19.48-4.93c2.63,0,5.18-.84,7.64-2.53,2.46-1.68,4.48-3.88,6.04-6.59,1.56-2.71,2.42-5.5,2.59-8.38v-15.53c-.58-4.35-2.2-7.89-4.87-10.6-2.67-2.71-5.9-4.07-9.68-4.07h-8.63c-4.19,0-7.58,1.58-10.17,4.75-2.59,3.16-3.88,7.33-3.88,12.51v14.79c0,4.6,1.21,8.36,3.64,11.28,2.42,2.92,5.53,4.38,9.31,4.38h8.01Z"/>
    <path class="cls-9" d="m577.85,121.64c-3.57-3.12-5.36-7.31-5.36-12.57v-3.94c0-5.18,1.85-9.33,5.55-12.45,3.7-3.12,8.59-4.68,14.67-4.68h7.89c2.71,0,5.5.41,8.38,1.23,2.88.82,5.34,1.93,7.4,3.33v-10.23c0-3.45-1.07-6.27-3.21-8.44-2.14-2.18-4.97-3.27-8.5-3.27h-9.86c-3.53,0-6.37.82-8.51,2.47-2.14,1.65-3.2,3.82-3.2,6.53h-8.88c0-5.01,1.89-9.06,5.67-12.14,3.78-3.08,8.75-4.62,14.92-4.62h9.86c6.08,0,10.99,1.79,14.73,5.36,3.74,3.57,5.61,8.28,5.61,14.11v43.02h-8.38v-8.63c-1.89,2.96-4.38,5.3-7.46,7.03s-6.27,2.59-9.55,2.59h-7.4c-6,0-10.79-1.56-14.36-4.68Zm22-3.08c3.86,0,7.31-1.19,10.35-3.57,3.04-2.38,5.09-5.55,6.16-9.49v-4.56c-1.64-1.56-3.92-2.81-6.84-3.76-2.92-.94-5.9-1.42-8.94-1.42h-7.89c-3.37,0-6.1.86-8.2,2.59s-3.14,3.99-3.14,6.78v3.94c0,2.88.99,5.18,2.96,6.9,1.97,1.73,4.6,2.59,7.89,2.59h7.64Z"/>
    <path class="cls-9" d="m643,63.83h8.63v9.49c1.64-2.88,4.13-5.22,7.46-7.03,3.33-1.81,6.8-2.71,10.42-2.71h5.42v8.01h-5.42c-5.26,0-9.51,1.66-12.76,4.99-3.25,3.33-4.87,7.75-4.87,13.25v35.5h-8.88v-61.51Z"/>
    <path class="cls-9" d="m688.6,52.73c-1.23-1.23-1.85-2.83-1.85-4.81s.62-3.57,1.85-4.81c1.23-1.23,2.83-1.85,4.81-1.85s3.57.62,4.81,1.85c1.23,1.23,1.85,2.83,1.85,4.81s-.62,3.57-1.85,4.81c-1.23,1.23-2.83,1.85-4.81,1.85s-3.58-.62-4.81-1.85Zm.37,11.09h8.88v61.51h-8.88v-61.51Z"/>
    <path class="cls-9" d="m723.36,120.53c-3.53-3.86-5.3-8.92-5.3-15.16v-41.54h8.87v41.79c0,3.86.94,6.96,2.84,9.31,1.89,2.34,4.35,3.51,7.4,3.51h7.64c3.78,0,7.27-1.52,10.48-4.56,3.21-3.04,5.26-6.86,6.16-11.46v-38.58h8.88v61.51h-8.63v-9.37c-1.89,2.96-4.4,5.42-7.52,7.4-3.12,1.97-6.16,2.96-9.12,2.96h-7.89c-5.67,0-10.27-1.93-13.81-5.79Z"/>
    <path class="cls-9" d="m869.37,68.08c3.16,3.49,4.75,8.32,4.75,14.48v42.77h-8.88v-43.02c0-3.61-.82-6.45-2.47-8.5-1.64-2.05-3.82-3.08-6.53-3.08h-7.03c-3.53,0-6.45,1.19-8.75,3.57-2.3,2.38-3.78,5.75-4.44,10.11v40.92h-8.88v-42.28c0-3.86-.76-6.88-2.28-9.06-1.52-2.18-3.6-3.27-6.22-3.27h-7.03c-3.37,0-6.33,1.48-8.88,4.44-2.55,2.96-4.15,6.82-4.81,11.59v38.58h-8.88v-61.51h8.63v8.88c1.64-3.12,3.7-5.55,6.16-7.27,2.47-1.73,5.05-2.59,7.77-2.59h7.27c3.45,0,6.43.84,8.94,2.53,2.5,1.69,4.42,4.13,5.73,7.33,1.89-3.29,4.15-5.75,6.78-7.4,2.63-1.64,5.5-2.47,8.63-2.47h7.52c5.42,0,9.72,1.75,12.88,5.24Z"/>
  </g>
  <g>
    <path class="cls-2" d="m0,123.12c23.47,14.09,46.95,28.17,70.42,42.26,19.72-12.02,39.43-24.03,59.15-36.05-23.47-14.09-46.95-28.17-70.42-42.26-19.72,12.02-39.43,24.03-59.15,36.05Z"/>
    <path class="cls-2" d="m101.9,42.27c9.22,29.02,18.45,58.04,27.67,87.06-23.48-14.09-46.95-28.17-70.43-42.26,12.99-14.93,25.97-29.86,38.96-44.8,1.27,0,2.53,0,3.8,0Z"/>
    <path class="cls-2" d="m27.71,0c23.47,14.09,46.95,28.18,70.42,42.27,1.25,0,2.51,0,3.76-.01C78.42,28.17,54.94,14.09,31.46,0c-1.25,0-2.5,0-3.76,0Z"/>
    <path class="cls-3" d="m100.01,46.51c8.62,27.14,17.25,54.27,25.87,81.41-17.07,10.43-34.15,20.86-51.22,31.28,8.45-37.56,16.9-75.13,25.35-112.69Z"/>
    <path class="cls-4" d="m74.58,159.4c17.16-10.42,34.33-20.84,51.49-31.26-13.07-7.7-26.14-15.41-39.21-23.12-4.1,18.12-8.19,36.25-12.29,54.37Z"/>
    <path class="cls-2" d="m98.13,42.27c-9.24,41.03-18.47,82.07-27.71,123.1-23.47-14.09-46.95-28.17-70.42-42.26C9.24,82.08,18.47,41.04,27.71,0c23.47,14.09,46.95,28.18,70.42,42.27Z"/>
    <g>
      <path class="cls-4" d="m87.77,55.62c-6.64,29.49-13.27,58.98-19.91,88.47-16.87-10.12-33.74-20.24-50.61-30.37,6.64-29.49,13.28-58.99,19.91-88.48,16.26,7.56,32.53,15.12,48.79,22.68.61,2.56,1.21,5.13,1.82,7.69Z"/>
      <path class="cls-1" d="m80.73,47.94c-6.64,29.49-13.28,58.98-19.91,88.47-16.87-10.12-33.74-20.24-50.61-30.37,6.64-29.49,13.28-58.99,19.91-88.48,16.87,10.13,33.74,20.25,50.61,30.38Z"/>
      <path class="cls-8" d="m30.12,17.57c16.87,10.13,33.74,20.25,50.61,30.38,1.74,0,3.48,0,5.23-.01-16.87-10.14-33.75-20.27-50.62-30.41-1.74.02-3.48.03-5.22.05Z"/>
      <path class="cls-6" d="m85.95,47.93c-1.74,0-3.48,0-5.23.01-6.64,29.49-13.28,58.98-19.91,88.47h5.2c6.65-29.49,13.29-58.99,19.94-88.48Z"/>
    </g>
    <g>
      <ellipse class="cls-5" cx="67.95" cy="49.75" rx="1.6" ry="2.33"/>
      <ellipse class="cls-5" cx="38.09" cy="32.68" rx="1.6" ry="2.33"/>
    </g>
    <path class="cls-7" d="m68.22,54.18c-1.51,0-2.96-.85-3.64-2.31-3.98-8.47-2.03-18.37,4.64-23.54,5.09-3.94,13.89-5.57,20.19-.83,2.51,1.89,4.37,4.62,5.36,7.91.64,2.13-.56,4.37-2.68,5.01-2.13.64-4.37-.56-5.01-2.68-.35-1.14-1.06-2.73-2.5-3.81-2.96-2.23-7.73-1.34-10.44.76-3.72,2.88-4.68,8.66-2.28,13.76.94,2.01.08,4.41-1.93,5.35-.55.26-1.13.38-1.71.38Z"/>
    <path class="cls-7" d="m38.33,37.05c-1.51,0-2.96-.85-3.64-2.31-3.98-8.47-2.03-18.37,4.64-23.54,5.09-3.94,13.89-5.57,20.19-.83,2.51,1.89,4.37,4.62,5.36,7.91.64,2.13-.56,4.37-2.68,5.01-2.13.64-4.37-.56-5.01-2.68-.35-1.14-1.06-2.73-2.5-3.81-2.96-2.23-7.73-1.34-10.44.76-3.72,2.88-4.68,8.66-2.28,13.76.94,2.01.08,4.41-1.93,5.35-.55.26-1.13.38-1.71.38Z"/>
  </g>
</svg>