<?xml version="1.0" encoding="utf-8"?>
<!-- Generator: Adobe Illustrator 24.3.0, SVG Export Plug-In . SVG Version: 6.00 Build 0)  -->
<svg version="1.1" id="Layer_1" xmlns="http://www.w3.org/2000/svg" xmlns:xlink="http://www.w3.org/1999/xlink" x="0px" y="0px"
	 viewBox="0 0 1190.52 209.62" style="enable-background:new 0 0 1190.52 209.62;" xml:space="preserve">
<style type="text/css">
	.st0{fill:#C65932;}
	.st1{fill:#B23F20;}
	.st2{fill:#993017;}
	.st3{fill:#F2EBEE;}
	.st4{fill:#E0DADC;}
	.st5{fill:#9E9A9C;}
	.st6{fill:#C1C1C1;}
	.st7{fill:#ED7950;}
	.st8{opacity:0.97;}
</style>
<g>
	<g>
		<path class="st0" d="M140.5,156.06c29.76,17.85,59.51,35.71,89.27,53.56c24.99-15.23,49.98-30.46,74.97-45.69
			c-29.76-17.85-59.51-35.71-89.27-53.56C190.48,125.6,165.49,140.83,140.5,156.06z"/>
		<path class="st0" d="M269.67,53.58c11.69,36.79,23.38,73.57,35.07,110.36c-29.76-17.86-59.52-35.71-89.27-53.57
			c16.46-18.93,32.92-37.86,49.39-56.78C266.46,53.59,268.06,53.58,269.67,53.58z"/>
		<path class="st0" d="M175.62,0c29.76,17.86,59.51,35.72,89.27,53.58c1.59,0,3.18-0.01,4.77-0.01
			C239.9,35.71,210.14,17.86,180.38,0C178.79,0,177.21,0,175.62,0z"/>
		<path class="st1" d="M267.27,58.96c10.93,34.4,21.86,68.79,32.79,103.19c-21.64,13.22-43.28,26.44-64.92,39.66
			C245.85,154.19,256.56,106.57,267.27,58.96z"/>
		<path class="st2" d="M235.03,202.05c21.76-13.21,43.51-26.42,65.27-39.62c-16.57-9.77-33.13-19.53-49.7-29.3
			C245.41,156.1,240.22,179.08,235.03,202.05z"/>
		<path class="st0" d="M264.89,53.58c-11.71,52.01-23.41,104.03-35.12,156.04c-29.76-17.85-59.51-35.71-89.27-53.56
			C152.2,104.04,163.91,52.02,175.62,0C205.37,17.86,235.13,35.72,264.89,53.58z"/>
		<path class="st2" d="M251.75,70.51c-8.41,37.38-16.83,74.76-25.24,112.14c-21.38-12.83-42.77-25.66-64.15-38.49
			c8.41-37.38,16.83-74.77,25.24-112.15c20.62,9.58,41.23,19.17,61.85,28.75C250.22,64.01,250.99,67.26,251.75,70.51z"/>
		<path class="st3" d="M242.82,60.77c-8.41,37.38-16.83,74.76-25.24,112.14c-21.38-12.83-42.77-25.66-64.15-38.49
			c8.41-37.38,16.83-74.77,25.24-112.15C200.06,35.1,221.44,47.94,242.82,60.77z"/>
		<path class="st4" d="M178.67,22.27c21.38,12.83,42.77,25.67,64.15,38.5c2.21,0,4.42-0.01,6.63-0.02
			c-21.39-12.85-42.78-25.7-64.17-38.55C183.08,22.23,180.88,22.25,178.67,22.27z"/>
		<path class="st5" d="M249.45,60.76c-2.21,0.01-4.42,0.01-6.63,0.02c-8.41,37.38-16.83,74.76-25.24,112.14c2.2,0,4.4,0,6.6,0
			C232.6,135.53,241.03,98.14,249.45,60.76z"/>
		<path class="st5" d="M224.6,63.07c0,1.63,0.91,2.95,2.03,2.95s2.03-1.32,2.03-2.95c0-1.63-0.91-2.95-2.03-2.95
			S224.6,61.44,224.6,63.07z"/>
		<path class="st5" d="M226.63,67.99c-2.25,0-4.01-2.16-4.01-4.93c0-2.76,1.76-4.93,4.01-4.93s4.01,2.16,4.01,4.93
			C230.63,65.83,228.87,67.99,226.63,67.99z M226.63,62.61c-0.03,0.13-0.05,0.29-0.05,0.46s0.02,0.33,0.05,0.46
			c0.03-0.13,0.05-0.29,0.05-0.46S226.66,62.74,226.63,62.61z"/>
		<ellipse class="st5" cx="188.77" cy="41.42" rx="2.03" ry="2.95"/>
		<path class="st5" d="M188.77,46.35c-2.25,0-4.01-2.16-4.01-4.93s1.76-4.93,4.01-4.93s4.01,2.16,4.01,4.93
			S191.02,46.35,188.77,46.35z M188.77,40.96c-0.03,0.13-0.05,0.29-0.05,0.46s0.02,0.33,0.05,0.46c0.03-0.13,0.05-0.29,0.05-0.46
			S188.8,41.09,188.77,40.96z"/>
		<path class="st6" d="M226.97,68.67c-1.91,0-3.75-1.08-4.62-2.93c-5.05-10.74-2.57-23.29,5.88-29.83
			c6.45-4.99,17.61-7.06,25.6-1.06c3.18,2.39,5.53,5.86,6.8,10.02c0.82,2.69-0.71,5.54-3.4,6.36c-2.7,0.82-5.54-0.71-6.36-3.4
			c-0.44-1.45-1.34-3.47-3.16-4.83c-3.76-2.82-9.79-1.69-13.23,0.97c-4.71,3.65-5.93,10.98-2.9,17.44c1.2,2.55,0.1,5.58-2.45,6.78
			C228.43,68.52,227.69,68.67,226.97,68.67z"/>
		<path class="st6" d="M189.08,46.96c-1.91,0-3.75-1.08-4.62-2.93c-5.05-10.74-2.57-23.29,5.88-29.83
			c6.45-4.99,17.61-7.06,25.6-1.06c3.18,2.39,5.53,5.86,6.8,10.02c0.82,2.69-0.71,5.54-3.4,6.36c-2.7,0.82-5.54-0.71-6.36-3.4
			c-0.44-1.45-1.35-3.46-3.16-4.83c-3.76-2.82-9.79-1.69-13.23,0.97c-4.71,3.65-5.93,10.98-2.9,17.44c1.2,2.55,0.1,5.58-2.45,6.78
			C190.55,46.8,189.81,46.96,189.08,46.96z"/>
	</g>
	<g>
		<g>
			<path d="M384.8,103.4c0-5.95-5.35-9.51-10.99-9.51H364c-6.1,0-11,4.91-11,11v25.85c0,6.1,4.9,11.3,11,11.3h9.8
				c6.09,0,10.99-2.68,10.99-9.51h9.51c0,8.32-5.79,18.73-19.91,18.73H363.4c-11.29,0-19.91-9.07-19.91-20.36v-25.7
				c0-11.3,9.21-20.51,20.51-20.51h9.8c11.14,0,20.5,8.02,20.5,18.72H384.8z"/>
		</g>
		<g>
			<path class="st7" d="M536.55,123.02v8.91c0,6.24,5.8,10.11,11.74,10.11h10.25c4.61,0,7.73-1.78,9.06-6.84h9.95
				c-2.22,8.91-9.21,16.05-18.86,16.05h-11.3c-11.3,0-20.36-8.32-20.36-19.62v-26.75c0-11.29,9.22-20.21,20.51-20.21h10.1
				c11.3,0,20.66,9.21,20.66,20.51v17.83H536.55z M568.8,104.59c0-6.09-5.2-10.7-11.15-10.7h-9.95c-6.1,0-11.15,4.61-11.15,10.7
				v9.36h32.25V104.59z"/>
		</g>
		<g>
			<path d="M859.98,58.38h11v11h-11V58.38z M860.72,85.41h9.51v64.49h-9.51V85.41z"/>
		</g>
		<g>
			<path d="M899.79,85.41v45.62c0,6.09,4.62,10.55,10.71,10.55h11.29c5.95,0,11-3.57,11-9.81V85.41h9.51v64.49h-9.51v-4.75
				c-3.27,3.27-6.24,5.65-12.63,5.65h-9.81c-11.29,0-20.06-8.92-20.06-20.21V85.41H899.79z"/>
		</g>
		<path d="M991.48,93.44h-9.95c-5.8,0-10.85,3.86-10.85,10.11v46.36h-9.51V85.41h9.51v4.76c3.27-3.27,6.24-5.95,12.49-5.95h8.77
			c3.27,0,9.66,2.38,14.41,7.58c5.05-5.5,8.91-7.58,16.05-7.58h7.72c11,0,19.92,8.92,19.92,20.06v45.61h-9.51v-45.61
			c0-6.09-4.16-10.85-10.1-10.85h-8.47c-6.25,0-10.99,4.46-10.99,10.55v45.91h-9.52v-45.76C1001.43,98.2,996.82,93.89,991.48,93.44"
			/>
		<g>
			<path d="M823.64,84.8c-4.29,0.1-8.27,1.08-10.75,4.58v-4.87h-8.88v65.39h8.88v-28.2l0-8.6v-7.23c0.02-2.69,1.1-6.99,3.01-8.89
				c2.03-2.09,4.82-3.28,7.74-3.3h21.7V84.8H823.64z"/>
		</g>
		<g>
			<path class="st8" d="M641.91,91.95c-4.75-5.2-11.15-7.58-14.41-7.58h-8.77c-6.24,0-9.21,2.67-12.49,5.95v-4.76h-9.51v64.49h9.51
				v-46.36c0-6.24,5.05-10.11,10.85-10.11h9.95c5.35,0.45,9.96,4.76,9.96,10.7v45.76h9.52v-45.91
				C646.52,103.73,646.12,96.16,641.91,91.95z"/>
		</g>
		<path d="M503.54,142.23c-5.86-0.3-10.36-5.35-10.06-11.27c0-0.06,0.01-0.12,0.01-0.18V94.43h0.01V85.7h-0.01V60.01h-8.85v25.98h0
			v8.73h0v36.64c-0.43,10.54,7.68,19.44,18.1,19.88c0.26,0.01,0.53,0.02,0.79,0.02h7.08v-9.02H503.54z"/>
		<path d="M443.58,84.68h-11.3c-9.65,0-16.64,7.14-18.86,16.05h9.95c1.34-5.05,4.46-6.84,9.06-6.84l10.25,0
			c5.95,0,11.74,3.86,11.74,10.11v8.91H425.5c0,0-12.83,2.35-12.83,17.68c0,11.36,9.3,20.66,20.66,20.66h10.4
			c3.93,0,7.59-1.15,10.7-3.11v3.11h9.51v-20.21v-3.05v-22.96C463.94,93.79,454.82,84.68,443.58,84.68z M454.43,130.89
			c0,6.13-5.02,11.15-11.15,11.15h-9.95c-5.95,0-11.15-4.61-11.15-10.7c0-9.36,10.05-9.36,10.05-9.36h-10.05v0h32.25v6.02V130.89z"
			/>
		<path d="M715.76,96.63v-9.22h-0.01V60.27h-9.5v27.44h0v0.41c-3.2-1.83-6.97-2.89-10.99-2.89h-9.8c-11.29,0-20.51,9.21-20.51,20.51
			v25.7c0,11.29,8.62,20.36,19.91,20.36h10.99c4.17,0,7.61-0.91,10.4-2.41v1.51h9.51v-20.7h-0.01v-26.25h0.01
			c0-0.08-0.01-0.16-0.01-0.23v-7.09H715.76z M706.24,133.19c-0.05,6.75-4.93,9.4-10.99,9.4h-9.8c-6.1,0-11-5.2-11-11.3v-25.85
			c0-6.09,4.9-11,11-11h9.8c5.62,0,10.94,3.53,10.99,9.42v26.34V133.19z"/>
		<path d="M765.23,84.23h-11.3c-9.65,0-16.64,7.14-18.86,16.05h9.95c1.34-5.05,4.46-6.84,9.06-6.84l10.25,0
			c5.95,0,11.74,3.86,11.74,10.11v8.91h-28.93c0,0-12.83,2.35-12.83,17.68c0,11.36,9.3,20.66,20.66,20.66h10.4
			c3.93,0,7.59-1.15,10.7-3.11v2.21h9.51v-19.31v-3.95v-22.06C785.58,93.35,776.47,84.23,765.23,84.23z M776.08,130.44
			c0,6.13-5.02,11.15-11.15,11.15h-9.95c-5.95,0-11.15-4.61-11.15-10.7c0-9.36,10.05-9.36,10.05-9.36h-10.05v0h32.25v5.12V130.44z"
			/>
	</g>
</g>
</svg>
